<svg width="131" height="42" viewBox="0 0 131 42" fill="none" xmlns="http://www.w3.org/2000/svg">
<g opacity="0.8">
<path d="M2.63317 4.94118C4.08742 4.94118 5.26633 3.83506 5.26633 2.47059C5.26633 1.10612 4.08742 0 2.63317 0C1.17891 0 0 1.10612 0 2.47059C0 3.83506 1.17891 4.94118 2.63317 4.94118Z" fill="#F89D35"/>
<path d="M26.1122 2.47059C26.1122 3.91176 25.0151 4.94118 23.4791 4.94118C21.943 4.94118 20.8459 3.91176 20.8459 2.47059C20.8459 1.02941 22.1625 0 23.4791 0C25.0151 0 26.1122 1.02941 26.1122 2.47059Z" fill="#F89D35"/>
<path d="M44.5444 4.94118C45.9986 4.94118 47.1775 3.83506 47.1775 2.47059C47.1775 1.10612 45.9986 0 44.5444 0C43.0901 0 41.9112 1.10612 41.9112 2.47059C41.9112 3.83506 43.0901 4.94118 44.5444 4.94118Z" fill="#F89D35"/>
<path d="M68.0234 2.47059C68.0234 3.91176 66.9263 4.94118 65.3902 4.94118C63.8542 4.94118 62.7571 3.91176 62.7571 2.47059C62.7571 1.02941 64.0737 0 65.6097 0C66.9263 0 68.0234 1.02941 68.0234 2.47059Z" fill="#F89D35"/>
<path d="M89.0887 2.47059C89.0887 3.91176 87.9916 4.94118 86.4556 4.94118C84.9195 4.94118 83.8224 3.91176 83.8224 2.47059C83.8224 1.02941 85.139 0 86.4556 0C87.9916 0 89.0887 1.02941 89.0887 2.47059Z" fill="#F89D35"/>
<path d="M107.521 4.94118C108.975 4.94118 110.154 3.83506 110.154 2.47059C110.154 1.10612 108.975 0 107.521 0C106.067 0 104.888 1.10612 104.888 2.47059C104.888 3.83506 106.067 4.94118 107.521 4.94118Z" fill="#F89D35"/>
<path d="M131 2.47059C131 3.91176 129.903 4.94118 128.367 4.94118C126.831 4.94118 125.734 3.91176 125.734 2.47059C125.734 1.02941 127.05 0 128.367 0C129.903 0 131 1.02941 131 2.47059Z" fill="#F89D35"/>
<path d="M2.63317 23.4706C4.08742 23.4706 5.26633 22.3645 5.26633 21C5.26633 19.6355 4.08742 18.5294 2.63317 18.5294C1.17891 18.5294 0 19.6355 0 21C0 22.3645 1.17891 23.4706 2.63317 23.4706Z" fill="#F89D35"/>
<path d="M26.1122 21C26.1122 22.4412 25.0151 23.4706 23.4791 23.4706C21.943 23.4706 20.8459 22.4412 20.8459 21C20.8459 19.5588 22.1625 18.5294 23.4791 18.5294C25.0151 18.5294 26.1122 19.5588 26.1122 21Z" fill="#F89D35"/>
<path d="M44.5444 23.4706C45.9986 23.4706 47.1775 22.3645 47.1775 21C47.1775 19.6355 45.9986 18.5294 44.5444 18.5294C43.0901 18.5294 41.9112 19.6355 41.9112 21C41.9112 22.3645 43.0901 23.4706 44.5444 23.4706Z" fill="#F89D35"/>
<path d="M68.0234 21C68.0234 22.4412 66.9263 23.4706 65.3902 23.4706C63.8542 23.4706 62.7571 22.4412 62.7571 21C62.7571 19.5588 64.0737 18.5294 65.6097 18.5294C66.9263 18.5294 68.0234 19.5588 68.0234 21Z" fill="#F89D35"/>
<path d="M89.0887 21C89.0887 22.4412 87.9916 23.4706 86.4556 23.4706C84.9195 23.4706 83.8224 22.4412 83.8224 21C83.8224 19.5588 85.139 18.5294 86.4556 18.5294C87.9916 18.5294 89.0887 19.5588 89.0887 21Z" fill="#F89D35"/>
<path d="M107.521 23.4706C108.975 23.4706 110.154 22.3645 110.154 21C110.154 19.6355 108.975 18.5294 107.521 18.5294C106.067 18.5294 104.888 19.6355 104.888 21C104.888 22.3645 106.067 23.4706 107.521 23.4706Z" fill="#F89D35"/>
<path d="M131 21C131 22.4412 129.903 23.4706 128.367 23.4706C126.831 23.4706 125.734 22.4412 125.734 21C125.734 19.5588 127.05 18.5294 128.367 18.5294C129.903 18.5294 131 19.5588 131 21Z" fill="#F89D35"/>
<path d="M2.63317 42C4.08742 42 5.26633 40.8939 5.26633 39.5294C5.26633 38.165 4.08742 37.0588 2.63317 37.0588C1.17891 37.0588 0 38.165 0 39.5294C0 40.8939 1.17891 42 2.63317 42Z" fill="#F89D35"/>
<path d="M26.1122 39.5294C26.1122 40.9706 25.0151 42 23.4791 42C21.943 42 20.8459 40.9706 20.8459 39.5294C20.8459 38.0882 22.1625 37.0588 23.4791 37.0588C25.0151 37.0588 26.1122 38.0882 26.1122 39.5294Z" fill="#F89D35"/>
<path d="M44.5444 42C45.9986 42 47.1775 40.8939 47.1775 39.5294C47.1775 38.165 45.9986 37.0588 44.5444 37.0588C43.0901 37.0588 41.9112 38.165 41.9112 39.5294C41.9112 40.8939 43.0901 42 44.5444 42Z" fill="#F89D35"/>
<path d="M68.0234 39.5294C68.0234 40.9706 66.9263 42 65.3902 42C63.8542 42 62.7571 40.9706 62.7571 39.5294C62.7571 38.0882 64.0737 37.0588 65.6097 37.0588C66.9263 37.0588 68.0234 38.0882 68.0234 39.5294Z" fill="#F89D35"/>
<path d="M89.0887 39.5294C89.0887 40.9706 87.9916 42 86.4556 42C84.9195 42 83.8224 40.9706 83.8224 39.5294C83.8224 38.0882 85.139 37.0588 86.4556 37.0588C87.9916 37.0588 89.0887 38.0882 89.0887 39.5294Z" fill="#F89D35"/>
<path d="M107.521 42C108.975 42 110.154 40.8939 110.154 39.5294C110.154 38.165 108.975 37.0588 107.521 37.0588C106.067 37.0588 104.888 38.165 104.888 39.5294C104.888 40.8939 106.067 42 107.521 42Z" fill="#F89D35"/>
<path d="M131 39.5294C131 40.9706 129.903 42 128.367 42C126.831 42 125.734 40.9706 125.734 39.5294C125.734 38.0882 127.05 37.0588 128.367 37.0588C129.903 37.0588 131 38.0882 131 39.5294Z" fill="#F89D35"/>
</g>
</svg>
