<svg width="42" height="131" viewBox="0 0 42 131" fill="none" xmlns="http://www.w3.org/2000/svg">
<g opacity="0.8" clip-path="url(#clip0_4_484)">
<path d="M4.94118 128.367C4.94118 126.913 3.83506 125.734 2.47059 125.734C1.10612 125.734 -1.78667e-07 126.913 -1.15099e-07 128.367C-5.15317e-08 129.821 1.10612 131 2.47059 131C3.83506 131 4.94118 129.821 4.94118 128.367Z" fill="#F89D35"/>
<path d="M2.47059 104.888C3.91176 104.888 4.94118 105.985 4.94118 107.521C4.94118 109.057 3.91176 110.154 2.47059 110.154C1.02941 110.154 -5.75496e-08 108.838 -1.15099e-07 107.521C-1.82241e-07 105.985 1.02941 104.888 2.47059 104.888Z" fill="#F89D35"/>
<path d="M4.94118 86.4556C4.94118 85.0014 3.83506 83.8225 2.47059 83.8225C1.10612 83.8225 -1.78667e-07 85.0014 -1.15099e-07 86.4556C-5.15316e-08 87.9099 1.10612 89.0888 2.47059 89.0888C3.83506 89.0888 4.94118 87.9099 4.94118 86.4556Z" fill="#F89D35"/>
<path d="M2.47059 62.9766C3.91176 62.9766 4.94118 64.0737 4.94118 65.6097C4.94118 67.1457 3.91176 68.2429 2.47059 68.2429C1.02941 68.2429 -5.75496e-08 66.9263 -1.24691e-07 65.3903C-1.82241e-07 64.0737 1.02941 62.9766 2.47059 62.9766Z" fill="#F89D35"/>
<path d="M2.47059 41.9113C3.91176 41.9113 4.94118 43.0084 4.94118 44.5444C4.94118 46.0805 3.91176 47.1776 2.47059 47.1776C1.02941 47.1776 -5.75498e-08 45.861 -1.151e-07 44.5444C-1.82241e-07 43.0084 1.02941 41.9113 2.47059 41.9113Z" fill="#F89D35"/>
<path d="M4.94118 23.479C4.94118 22.0248 3.83506 20.8459 2.47059 20.8459C1.10612 20.8459 -1.78667e-07 22.0248 -1.15099e-07 23.479C-5.15317e-08 24.9333 1.10612 26.1122 2.47059 26.1122C3.83506 26.1122 4.94118 24.9333 4.94118 23.479Z" fill="#F89D35"/>
<path d="M2.47059 -6.08674e-05C3.91176 -6.09304e-05 4.94118 1.09709 4.94118 2.6331C4.94118 4.16911 3.91176 5.26627 2.47059 5.26627C1.02941 5.26627 -5.75496e-08 3.94968 -1.15099e-07 2.6331C-1.8224e-07 1.09709 1.02941 -6.08044e-05 2.47059 -6.08674e-05Z" fill="#F89D35"/>
<path d="M23.4706 128.367C23.4706 126.913 22.3645 125.734 21 125.734C19.6355 125.734 18.5294 126.913 18.5294 128.367C18.5294 129.821 19.6355 131 21 131C22.3645 131 23.4706 129.821 23.4706 128.367Z" fill="#F89D35"/>
<path d="M21 104.888C22.4412 104.888 23.4706 105.985 23.4706 107.521C23.4706 109.057 22.4412 110.154 21 110.154C19.5588 110.154 18.5294 108.838 18.5294 107.521C18.5294 105.985 19.5588 104.888 21 104.888Z" fill="#F89D35"/>
<path d="M23.4706 86.4556C23.4706 85.0014 22.3645 83.8225 21 83.8225C19.6355 83.8225 18.5294 85.0014 18.5294 86.4556C18.5294 87.9099 19.6355 89.0888 21 89.0888C22.3645 89.0888 23.4706 87.9099 23.4706 86.4556Z" fill="#F89D35"/>
<path d="M21 62.9766C22.4412 62.9766 23.4706 64.0737 23.4706 65.6097C23.4706 67.1457 22.4412 68.2429 21 68.2429C19.5588 68.2429 18.5294 66.9263 18.5294 65.3903C18.5294 64.0737 19.5588 62.9766 21 62.9766Z" fill="#F89D35"/>
<path d="M21 41.9113C22.4412 41.9113 23.4706 43.0084 23.4706 44.5444C23.4706 46.0805 22.4412 47.1776 21 47.1776C19.5588 47.1776 18.5294 45.861 18.5294 44.5444C18.5294 43.0084 19.5588 41.9113 21 41.9113Z" fill="#F89D35"/>
<path d="M23.4706 23.479C23.4706 22.0248 22.3645 20.8459 21 20.8459C19.6355 20.8459 18.5294 22.0248 18.5294 23.479C18.5294 24.9333 19.6355 26.1122 21 26.1122C22.3645 26.1122 23.4706 24.9333 23.4706 23.479Z" fill="#F89D35"/>
<path d="M21 -6.08674e-05C22.4412 -6.09304e-05 23.4706 1.09709 23.4706 2.6331C23.4706 4.16911 22.4412 5.26627 21 5.26627C19.5588 5.26627 18.5294 3.94968 18.5294 2.6331C18.5294 1.09709 19.5588 -6.08044e-05 21 -6.08674e-05Z" fill="#F89D35"/>
<path d="M42 128.367C42 126.913 40.8939 125.734 39.5294 125.734C38.165 125.734 37.0588 126.913 37.0588 128.367C37.0588 129.821 38.165 131 39.5294 131C40.8939 131 42 129.821 42 128.367Z" fill="#F89D35"/>
<path d="M39.5294 104.888C40.9706 104.888 42 105.985 42 107.521C42 109.057 40.9706 110.154 39.5294 110.154C38.0882 110.154 37.0588 108.838 37.0588 107.521C37.0588 105.985 38.0882 104.888 39.5294 104.888Z" fill="#F89D35"/>
<path d="M42 86.4556C42 85.0014 40.8939 83.8225 39.5294 83.8225C38.165 83.8225 37.0588 85.0014 37.0588 86.4556C37.0588 87.9099 38.165 89.0888 39.5294 89.0888C40.8939 89.0888 42 87.9099 42 86.4556Z" fill="#F89D35"/>
<path d="M39.5294 62.9766C40.9706 62.9766 42 64.0737 42 65.6097C42 67.1457 40.9706 68.2429 39.5294 68.2429C38.0882 68.2429 37.0588 66.9263 37.0588 65.3903C37.0588 64.0737 38.0882 62.9766 39.5294 62.9766Z" fill="#F89D35"/>
<path d="M39.5294 41.9113C40.9706 41.9113 42 43.0084 42 44.5444C42 46.0805 40.9706 47.1776 39.5294 47.1776C38.0882 47.1776 37.0588 45.861 37.0588 44.5444C37.0588 43.0084 38.0882 41.9113 39.5294 41.9113Z" fill="#F89D35"/>
<path d="M42 23.479C42 22.0248 40.8939 20.8459 39.5294 20.8459C38.165 20.8459 37.0588 22.0248 37.0588 23.479C37.0588 24.9333 38.165 26.1122 39.5294 26.1122C40.8939 26.1122 42 24.9333 42 23.479Z" fill="#F89D35"/>
<path d="M39.5294 -6.08674e-05C40.9706 -6.09304e-05 42 1.09709 42 2.6331C42 4.16911 40.9706 5.26627 39.5294 5.26627C38.0882 5.26627 37.0588 3.94968 37.0588 2.6331C37.0588 1.09709 38.0882 -6.08044e-05 39.5294 -6.08674e-05Z" fill="#F89D35"/>
</g>
<defs>
<clipPath id="clip0_4_484">
<rect width="131" height="42" fill="white" transform="translate(0 131) rotate(-90)"/>
</clipPath>
</defs>
</svg>
